# xmcd
#
# Track frame offsets:
#        150
#        12957
#        29200
#
# Disc length: 607 seconds
#
# Revision: 1
# Processed by: cddbd v1.5.1PL0 Copyright (c) Steve Scherf et al.
# Submitted via: ExactAudioCopy v0.95a5
#
DISCID=20025d03
DTITLE=Oh!Penelope - Happy Song
DYEAR=1995
DGENRE=J-POP
TTITLE0=Happy Song
TTITLE1=I Go To Life
TTITLE2=Kind of Funny (demo)
EXTD=
EXTT0=
EXTT1=
EXTT2=
PLAYORDER=
